<?xml version="1.0" standalone="no"?><!DOCTYPE svg PUBLIC "-//W3C//DTD SVG 1.1//EN" "http://www.w3.org/Graphics/SVG/1.1/DTD/svg11.dtd"><svg class="icon" width="16px" height="16.00px" viewBox="0 0 1024 1024" version="1.1" xmlns="http://www.w3.org/2000/svg"><path fill="#000000" d="M977.481143 0H46.518857C20.772571 0 0 21.723429 0 48.786286v48.713143c0 26.989714 20.772571 48.713143 46.518857 48.713142h930.962286c25.746286 0 46.518857-21.723429 46.518857-48.713142V48.786286c0-27.062857-20.772571-48.786286-46.518857-48.786286z m0 438.857143H372.297143c-25.746286 0-46.518857 21.796571-46.518857 48.786286v48.713142c0 26.989714 20.772571 48.786286 46.518857 48.786286h605.037714c25.746286 0 46.518857-21.796571 46.518857-48.786286v-48.713142C1024 460.653714 1003.227429 438.857143 977.481143 438.857143z m0 438.857143H46.518857c-25.746286 0-46.518857 21.796571-46.518857 48.786285v48.713143c0 26.989714 20.772571 48.786286 46.518857 48.786286h930.962286c25.746286 0 46.518857-21.723429 46.518857-48.786286v-48.713143c0-26.989714-20.772571-48.713143-46.518857-48.713142z m-768-251.318857V397.604571c0-28.379429-35.913143-42.642286-56.832-22.528L33.060571 489.325714a30.939429 30.939429 0 0 0 0 45.202286l119.588572 114.395429c20.918857 19.968 56.832 5.705143 56.832-22.674286z"  /></svg>