<?xml version="1.0" encoding="utf-8"?>
<!-- Generator: Adobe Illustrator 27.0.0, SVG Export Plug-In . SVG Version: 6.00 Build 0)  -->
<svg version="1.1" id="图层_1" xmlns="http://www.w3.org/2000/svg" xmlns:xlink="http://www.w3.org/1999/xlink" x="0px" y="0px"
	 viewBox="0 0 1920 1080" style="enable-background:new 0 0 1920 1080;" xml:space="preserve">
<style type="text/css">
	.st0{fill:#FFFFFF;stroke:#000000;stroke-width:20;stroke-miterlimit:10;}
	.st1{fill:none;stroke:#000000;stroke-width:20;stroke-miterlimit:10;}
	.st2{stroke:#FFFFFF;stroke-width:8;stroke-miterlimit:10;}
</style>
<g id="图层_1_00000122711053225711232680000014698897193563383432_">
	<polygon class="st0" points="868.7,139 603.2,434.5 688.4,708.5 955.9,399.8 	"/>
	<polygon class="st0" points="882.9,134.3 968.1,403.6 1340.1,489.9 1267.7,218.8 	"/>
	<polygon class="st0" points="683.8,717.9 1080.7,794.5 1001.6,532 606.4,451.5 	"/>
	<polygon class="st0" points="1094.9,789.8 1361.3,492.4 1272.3,230.7 1010.5,528.1 	"/>
	<line class="st1" x1="1416.2" y1="276.2" x2="1270.9" y2="219.3"/>
	<line class="st1" x1="513.2" y1="567.8" x2="601.3" y2="435.9"/>
</g>
<g id="图层_3">
	
		<image style="display:none;overflow:visible;enable-background:new    ;" width="170" height="124" xlink:href="E5CDD9EE.jpeg"  transform="matrix(4.1694 0 0 4.1694 555.3688 364)">
	</image>
	
		<image style="display:none;overflow:visible;enable-background:new    ;" width="172" height="131" xlink:href="E5CDD9F2.jpeg"  transform="matrix(1 0 0 1 1415 161)">
	</image>
	
		<image style="display:none;overflow:visible;enable-background:new    ;" width="510" height="398" xlink:href="E5CDD9F2.jpeg"  transform="matrix(1 0 0 1 27 13)">
	</image>
</g>
<g id="图层_2_00000096765099110891110890000012099840556484639395_">
	<path class="st2" d="M753.8,153.9c0,0-26.8,1-19,22.7s48.7,56.8,80.6,62.6l96.2,63.6l-21.4,30.8c0,0-39.8-17.9-85,9.5
		s-28.7,97.6-23.6,104.4l37.4-49.1l53.6-1.9l16.9,50.9l-36.7,52.8c0,0,56.5,13.1,87.3-50.4c22.5-46.4-8.6-90.9-8.6-90.9l18.4-26.4
		l52.8,36.7L987.9,395l18.3,16l21.7-7.8l80.6,62.6l18-7.1l24.5-35.2l-7.1-18l-78.6-51.4l-4.7-26.1l-17.6-12.2l-17.7,30.1l-58.4-42.6
		l21.9-31.8c0,0,42,19.4,82.8-11s28.3-78.3,24.3-100.7l-40.5,53.5l-46.8-3.1l-16.9-50.9l32-54.2c0,0-62.7-9.7-86.3,52.3
		c-12,40.7,12.3,89.8,12.3,89.8l-19.4,25.2l-95.1-61.9C835.3,210.5,811,161,753.8,153.9z"/>
	<polygon class="st0" points="1275.2,222.6 1007.7,524.3 1141.8,652.5 1414.5,347.6 	"/>
	<polygon class="st0" points="991.7,525.6 955.5,713.7 558.8,625.2 601.7,442.1 	"/>
</g>
<g id="图层_4">
	<path class="st0" d="M1283.8,184.6c0,0,278.7-172.8,367.8-103.1s-916.8,983.7-1340.3,900c-25.1-61.3-2.8-131,214.6-314.9
		c-55.7,83.6-103.1,158.8-92,181.1c-25.1,92,855.5-292.6,1056.1-682.7C1517.8,115,1283.8,184.6,1283.8,184.6z"/>
</g>
<g id="图层_5">
	<polygon class="st0" points="876.8,854 872.3,876.4 855.9,889.9 873.8,894.3 888.7,913.8 894.7,892.9 911.2,877.9 891.7,873.4 	"/>
	<polygon class="st0" points="1469.8,410.5 1448.3,437.9 1416.7,444.9 1438,463.3 1444.9,500 1467.5,475.7 1500.1,466.7 
		1476.8,447.2 	"/>
	<polygon class="st0" points="1314.9,605.2 1321.3,625 1314.2,642.9 1330.4,638.5 1350.8,647.4 1346.3,628.1 1352.8,609 1335.4,614 
			"/>
	<polygon class="st0" points="438.5,551.5 441.6,574.2 430.5,592.2 448.9,590.6 469.4,604.1 468.2,582.4 478.8,562.9 459,565 	"/>
	<polygon class="st0" points="510.5,388.4 497.9,421.3 469.4,437.5 495.5,449 513.2,482.4 527.8,452.1 556.6,433.6 528.2,421.8 	"/>
</g>
</svg>
